# Blender v2.93.16 OBJ File: 'Dome.blend'
# www.blender.org
mtllib Dome.mtl
o Icosphere_Icosphere.002
v 0.276388 0.447220 0.850649
v -0.723607 0.447220 0.525725
v -0.723607 0.447220 -0.525725
v 0.276388 0.447220 -0.850649
v 0.894426 0.447216 0.000000
v 0.000000 1.000000 0.000000
v 0.956626 0.251149 0.147618
v -0.894950 0.033362 -0.291853
v -0.890034 0.000000 -0.289185
v 0.956626 0.251149 -0.147618
v 0.155215 0.251152 0.955422
v -0.894950 0.033362 0.291853
v 0.436007 0.251152 0.864188
v -0.860698 0.251151 0.442858
v -0.935836 -0.000000 0.000000
v -0.890034 0.000000 0.289185
v -0.687159 0.251152 0.681715
v -0.687159 0.251152 -0.681715
v -0.939459 0.062169 0.309043
v -0.947213 0.276397 0.162458
v -0.860698 0.251151 -0.442858
v 0.436007 0.251152 -0.864188
v -0.890034 0.000000 0.289185
v 0.155215 0.251152 -0.955422
v 0.831051 0.502299 0.238853
v 0.688189 0.525736 0.499997
v 0.483971 0.502302 0.716565
v 0.029639 0.502302 0.864184
v -0.262869 0.525738 0.809012
v -0.531941 0.502302 0.681712
v -0.812729 0.502301 0.295238
v -0.850648 0.525736 0.000000
v -0.812729 0.502301 -0.295238
v -0.531941 0.502302 -0.681712
v -0.262869 0.525738 -0.809012
v 0.029639 0.502302 -0.864184
v 0.483971 0.502302 -0.716565
v 0.688189 0.525736 -0.499997
v 0.831051 0.502299 -0.238853
v 0.077607 0.967950 0.238853
v 0.162456 0.850654 0.499995
v 0.232822 0.657519 0.716563
v 0.753442 0.657515 0.000000
v 0.525730 0.850652 0.000000
v 0.251147 0.967949 0.000000
v -0.203181 0.967950 0.147618
v -0.425323 0.850654 0.309011
v -0.609547 0.657519 0.442856
v -0.203181 0.967950 -0.147618
v -0.425323 0.850654 -0.309011
v -0.609547 0.657519 -0.442856
v 0.077607 0.967950 -0.238853
v 0.162456 0.850654 -0.499995
v 0.232822 0.657519 -0.716563
v 0.361800 0.894429 -0.262863
v 0.638194 0.723610 -0.262864
v 0.447209 0.723612 -0.525728
v -0.138197 0.894430 -0.425319
v -0.052790 0.723612 -0.688185
v -0.361804 0.723612 -0.587778
v -0.447210 0.894429 0.000000
v -0.670817 0.723611 -0.162457
v -0.670817 0.723611 0.162457
v -0.138197 0.894430 0.425319
v -0.361804 0.723612 0.587778
v -0.052790 0.723612 0.688185
v 0.361800 0.894429 0.262863
v 0.447209 0.723612 0.525728
v 0.638194 0.723610 0.262864
v 0.861804 0.276396 -0.425322
v 0.670821 0.276397 -0.688189
v -0.138199 0.276397 -0.951055
v -0.447215 0.276397 -0.850649
v -0.947213 0.276396 -0.162458
v -0.935836 -0.000000 0.000000
v -0.947213 0.276397 0.162458
v -0.447216 0.276397 0.850648
v -0.890034 0.000000 -0.289185
v -0.138199 0.276397 0.951055
v 0.670820 0.276396 0.688190
v 0.861804 0.276394 0.425323
v 0.890034 -0.000001 0.289185
v 0.941692 0.062169 0.302171
v 0.895579 0.033361 0.289916
v 0.890034 -0.000000 -0.289185
v 0.941692 0.062169 -0.302171
v 0.895580 0.033362 -0.289916
v 0.000000 -0.000001 0.935836
v 0.003613 0.062169 0.988978
v 0.001019 0.033362 0.941336
v 0.550071 -0.000001 0.757107
v 0.578384 0.062169 0.802223
v 0.552480 0.033361 0.762155
v -0.890034 0.000000 0.289185
v -0.550071 -0.000001 0.757107
v -0.584230 0.062169 0.797976
v -0.554128 0.033362 0.760958
v -0.550071 -0.000000 -0.757107
v -0.584230 0.062169 -0.797976
v -0.554128 0.033362 -0.760958
v -0.939459 0.062169 -0.309043
v 0.550071 0.000000 -0.757107
v 0.578384 0.062169 -0.802224
v 0.552480 0.033362 -0.762155
v -0.000000 -0.000000 -0.935836
v 0.003613 0.062169 -0.988978
v 0.001019 0.033362 -0.941336
v 0.757109 0.000000 -0.550068
v 0.799440 0.061998 -0.580822
v 0.761372 0.033314 -0.553164
v -0.289189 0.000000 -0.890033
v -0.305358 0.061997 -0.939795
v -0.290817 0.033313 -0.895044
v -0.289189 0.000000 0.890033
v -0.305358 0.061997 0.939795
v -0.290818 0.033313 0.895044
v 0.757109 0.000001 0.550068
v 0.799440 0.061996 0.580823
v 0.761371 0.033313 0.553165
v 0.289189 -0.000000 -0.890033
v 0.305698 0.062193 -0.940841
v 0.290913 0.033369 -0.895339
v -0.757109 -0.000000 -0.550069
v -0.800329 0.062193 -0.581470
v -0.761622 0.033369 -0.553348
v -0.757109 0.000000 0.550069
v -0.800329 0.062193 0.581470
v -0.761622 0.033369 0.553348
v 0.289189 0.000000 0.890033
v 0.305698 0.062193 0.940841
v 0.290913 0.033369 0.895339
v 0.935836 0.000000 0.000000
v 0.989259 0.062193 0.000000
v 0.941415 0.033369 0.000000
v -1.157206 0.000000 -0.289185
v -1.157206 0.033362 0.291853
v -1.157206 0.000000 0.289185
v -1.157206 0.276396 -0.162458
v -1.157206 0.062169 -0.309043
v -1.157206 0.062169 0.309043
v -1.157206 0.276397 0.162458
v -1.157206 0.033362 -0.291853
v -1.157206 0.033362 -0.291853
v -1.157206 0.062169 0.309043
v -1.157206 0.062169 -0.309043
v -1.157206 0.033362 0.291853
v 0.941415 0.033369 0.000000
v 0.989259 0.062193 0.000000
v 0.290913 0.033369 0.895339
v 0.305698 0.062193 0.940841
v -0.761622 0.033369 0.553348
v -0.800329 0.062193 0.581470
v -0.761622 0.033369 -0.553348
v -0.800329 0.062193 -0.581470
v 0.290913 0.033369 -0.895339
v 0.305698 0.062193 -0.940841
v 0.761371 0.033313 0.553165
v 0.799440 0.061996 0.580823
v -0.290818 0.033313 0.895044
v -0.305358 0.061997 0.939795
v -0.290817 0.033313 -0.895044
v -0.305358 0.061997 -0.939795
v 0.761372 0.033314 -0.553164
v 0.799440 0.061998 -0.580822
v 0.001019 0.033362 -0.941336
v 0.003613 0.062169 -0.988978
v 0.552480 0.033362 -0.762155
v 0.578384 0.062169 -0.802224
v -0.939459 0.062169 -0.309043
v -0.554128 0.033362 -0.760958
v -0.584230 0.062169 -0.797976
v -0.554128 0.033362 0.760958
v -0.584230 0.062169 0.797976
v 0.552480 0.033361 0.762155
v 0.578384 0.062169 0.802223
v 0.001019 0.033362 0.941336
v 0.003613 0.062169 0.988978
v 0.895580 0.033362 -0.289916
v 0.941692 0.062169 -0.302171
v 0.895579 0.033361 0.289916
v 0.941692 0.062169 0.302171
v -0.939459 0.062169 0.309043
v -0.894950 0.033362 0.291853
v -0.894950 0.033362 -0.291853
v -0.947213 0.276397 0.162458
v -0.947213 0.276397 0.162458
v -1.157206 0.276397 0.162458
v -1.157206 0.000000 0.289185
v -0.890034 0.000000 0.289185
v -0.890034 0.000000 0.289185
v -0.947213 0.276397 0.162458
v -0.939459 0.062169 0.309043
v -0.947213 0.276396 -0.162458
v -0.947213 0.276396 -0.162458
v 0.757109 0.000000 -0.550068
v 0.890034 -0.000000 -0.289185
v 0.550071 0.000000 -0.757107
v -0.289189 0.000000 -0.890033
v -0.000000 -0.000000 -0.935836
v -0.550071 -0.000000 -0.757107
v -0.289189 0.000000 0.890033
v -0.550071 -0.000001 0.757107
v 0.000000 -0.000001 0.935836
v 0.757109 0.000001 0.550068
v 0.550071 -0.000001 0.757107
v 0.890034 -0.000001 0.289185
v 0.289189 -0.000000 -0.890033
v -0.757109 -0.000000 -0.550069
v -0.757109 0.000000 0.550069
v 0.289189 0.000000 0.890033
v 0.935836 0.000000 0.000000
v -0.939459 0.062169 -0.309043
v -0.890034 0.000000 -0.289185
v -0.890034 0.000000 -0.289185
v -1.157206 0.000000 -0.289185
v -1.157206 0.276396 -0.162458
v -0.894950 0.033362 -0.291853
v -0.894950 0.033362 0.291853
v -0.894950 0.033362 -0.291853
v -0.939459 0.062169 -0.309043
v -0.939459 0.062169 0.309043
v -0.894950 0.033362 0.291853
vt 0.661530 0.245265
vt 0.339957 0.246996
vt 0.338839 0.039163
vt 0.660412 0.037432
vt 0.041313 0.946916
vt 0.046962 0.946916
vt 0.046962 0.991109
vt 0.041313 0.991109
vt 0.557636 0.513123
vt 0.557636 0.513123
vt 0.566761 0.455514
vt 0.566761 0.455514
vt 0.566761 0.455514
vt 0.593241 0.403542
vt 0.634486 0.362297
vt 0.686457 0.335816
vt 0.744067 0.326692
vt 0.801678 0.335816
vt 0.853649 0.362297
vt 0.894894 0.403542
vt 0.921374 0.455514
vt 0.930498 0.513123
vt 0.921374 0.570733
vt 0.894894 0.622704
vt 0.853649 0.663949
vt 0.801678 0.690430
vt 0.744067 0.699554
vt 0.686457 0.690430
vt 0.634486 0.663949
vt 0.593241 0.622704
vt 0.566761 0.570733
vt 0.566761 0.570733
vt 0.513536 0.570733
vt 0.513536 0.455514
vt 0.661530 0.245265
vt 0.660412 0.037432
vt 0.664039 0.037444
vt 0.921024 0.032871
vt 0.918423 0.248366
vt 0.081890 0.032871
vt 0.338839 0.039163
vt 0.339957 0.246996
vt 0.083050 0.248379
vt 0.041313 0.018891
vt 0.046962 0.018891
vt 0.046962 0.064647
vt 0.041313 0.064647
vt 0.046962 0.113589
vt 0.041313 0.113589
vt 0.041313 0.064647
vt 0.046962 0.064647
vt 0.041313 0.162532
vt 0.046962 0.162532
vt 0.041313 0.211638
vt 0.046962 0.211638
vt 0.041313 0.260744
vt 0.046962 0.260744
vt 0.041313 0.309686
vt 0.046962 0.309686
vt 0.041313 0.358628
vt 0.046962 0.358628
vt 0.041313 0.407734
vt 0.046962 0.407734
vt 0.041313 0.456840
vt 0.046962 0.456840
vt 0.041313 0.505782
vt 0.046962 0.505782
vt 0.041313 0.554723
vt 0.046962 0.554723
vt 0.041313 0.603829
vt 0.046962 0.603829
vt 0.041313 0.652935
vt 0.046962 0.652935
vt 0.041313 0.701877
vt 0.046962 0.701877
vt 0.041313 0.750819
vt 0.046962 0.750819
vt 0.041313 0.799925
vt 0.046962 0.799925
vt 0.041313 0.849031
vt 0.046962 0.849031
vt 0.041313 0.897974
vt 0.046962 0.897974
vt 0.046962 0.946916
vt 0.041313 0.946916
vt 0.027122 0.457769
vt 0.027122 0.408617
vt 0.036108 0.408617
vt 0.036108 0.457769
vt 0.027122 0.359465
vt 0.036108 0.359465
vt 0.027122 0.262604
vt 0.027122 0.213452
vt 0.036108 0.213452
vt 0.036108 0.262604
vt 0.027122 0.164300
vt 0.036108 0.164300
vt 0.027122 0.848098
vt 0.027122 0.798946
vt 0.036108 0.798946
vt 0.036108 0.848098
vt 0.027122 0.749794
vt 0.036108 0.749794
vt 0.027122 0.652933
vt 0.027122 0.603781
vt 0.036108 0.603781
vt 0.036108 0.652933
vt 0.027122 0.554629
vt 0.036108 0.554629
vt 0.027122 0.311034
vt 0.036108 0.311034
vt 0.027122 0.115869
vt 0.036108 0.115869
vt 0.027122 0.896529
vt 0.036108 0.896529
vt 0.027122 0.701364
vt 0.036108 0.701364
vt 0.027122 0.506199
vt 0.036108 0.506199
vt 0.036108 0.944960
vt 0.027122 0.944960
vt 0.036108 0.983742
vt 0.027122 0.983742
vt 0.027122 0.944960
vt 0.036108 0.944960
vt 0.036108 0.028656
vt 0.036108 0.067438
vt 0.027122 0.067438
vt 0.027122 0.028656
vt 0.027122 0.067438
vt 0.036108 0.067438
vt 0.305794 0.414991
vt 0.313596 0.437208
vt 0.287257 0.431224
vt 0.408147 0.443620
vt 0.389097 0.459243
vt 0.385659 0.431484
vt 0.408147 0.556380
vt 0.389097 0.540757
vt 0.416468 0.531289
vt 0.305794 0.585009
vt 0.313596 0.562792
vt 0.330479 0.583971
vt 0.245471 0.500000
vt 0.268904 0.500000
vt 0.254616 0.522797
vt 0.316227 0.500000
vt 0.334885 0.500000
vt 0.329031 0.517764
vt 0.293507 0.500000
vt 0.306920 0.520141
vt 0.280976 0.521978
vt 0.321697 0.539402
vt 0.296730 0.544102
vt 0.269066 0.547095
vt 0.287257 0.568776
vt 0.350084 0.511106
vt 0.345330 0.533133
vt 0.338541 0.558594
vt 0.368785 0.525049
vt 0.365088 0.550863
vt 0.358526 0.578447
vt 0.385659 0.568516
vt 0.350084 0.488894
vt 0.369993 0.500000
vt 0.393265 0.514509
vt 0.368785 0.474951
vt 0.393265 0.485491
vt 0.420261 0.500000
vt 0.416468 0.468711
vt 0.329031 0.482236
vt 0.345330 0.466867
vt 0.365088 0.449137
vt 0.321697 0.460598
vt 0.338541 0.441406
vt 0.358526 0.421553
vt 0.330479 0.416029
vt 0.306920 0.479859
vt 0.296730 0.455898
vt 0.280976 0.478022
vt 0.269066 0.452905
vt 0.254616 0.477203
vt 0.224272 0.516833
vt 0.205215 0.540889
vt 0.236810 0.547668
vt 0.224073 0.578988
vt 0.330877 0.363220
vt 0.314615 0.389302
vt 0.290277 0.371157
vt 0.373152 0.632042
vt 0.348015 0.609280
vt 0.383418 0.599625
vt 0.257853 0.577355
vt 0.253761 0.609419
vt 0.282808 0.599438
vt 0.290277 0.628843
vt 0.314615 0.610698
vt 0.330877 0.636780
vt 0.412113 0.614895
vt 0.413399 0.583894
vt 0.443777 0.588094
vt 0.436682 0.557737
vt 0.468075 0.554268
vt 0.451370 0.522460
vt 0.373152 0.367958
vt 0.383418 0.400375
vt 0.348015 0.390720
vt 0.451370 0.477540
vt 0.443777 0.411906
vt 0.413399 0.416106
vt 0.412113 0.385105
vt 0.436682 0.442263
vt 0.224073 0.421012
vt 0.257853 0.422645
vt 0.236809 0.452331
vt 0.282808 0.400562
vt 0.253761 0.390581
vt 0.468075 0.445732
vt 0.205215 0.459111
vt 0.224272 0.483167
vt 0.199062 0.500000
vt 0.451928 0.477826
vn 0.0000 -1.0000 0.0000
vn 0.0000 0.0797 -0.9968
vn 0.0000 1.0000 0.0000
vn 0.0000 -0.5647 -0.8253
vn 0.0000 -0.5647 0.8253
vn 0.0000 0.0797 0.9968
vn 0.7978 0.1661 0.5796
vn 0.8788 0.1641 0.4480
vn 0.5824 0.1617 0.7966
vn 0.5776 0.1615 0.8001
vn 0.3052 0.1571 0.9392
vn -0.0029 0.1617 0.9868
vn 0.0030 0.1615 0.9868
vn -0.3047 0.1661 0.9378
vn -0.5777 0.1617 0.8001
vn -0.5825 0.1615 0.7966
vn -0.7989 0.1571 0.5805
vn -0.9394 0.1617 0.3022
vn -0.9376 0.1615 0.3078
vn -0.9861 0.1661 0.0000
vn -0.9394 0.1617 -0.3022
vn -0.9376 0.1615 -0.3078
vn -0.7989 0.1571 -0.5805
vn -0.5777 0.1617 -0.8001
vn -0.5825 0.1615 -0.7966
vn -0.3047 0.1661 -0.9378
vn -0.0029 0.1617 -0.9868
vn 0.0030 0.1615 -0.9868
vn 0.3052 0.1571 -0.9392
vn 0.5824 0.1617 -0.7966
vn 0.5776 0.1615 -0.8001
vn 0.7978 0.1661 -0.5796
vn 0.8788 0.1641 -0.4480
vn -0.4931 0.8555 0.1577
vn -0.4212 0.8538 0.3060
vn -0.4918 0.8554 0.1624
vn -0.3023 0.8555 0.4203
vn -0.3064 0.8554 0.4175
vn -0.0024 0.8555 0.5177
vn 0.1609 0.8538 0.4951
vn 0.0025 0.8554 0.5179
vn 0.3063 0.8555 0.4174
vn 0.3024 0.8554 0.4204
vn 0.3063 0.8555 -0.4174
vn 0.1609 0.8538 -0.4951
vn 0.3024 0.8554 -0.4204
vn -0.0024 0.8555 -0.5177
vn 0.0024 0.8554 -0.5179
vn -0.3023 0.8555 -0.4203
vn -0.4212 0.8538 -0.3060
vn -0.3064 0.8554 -0.4175
vn -0.4931 0.8555 -0.1577
vn -0.4918 0.8554 -0.1624
vn -0.1592 0.8571 0.4899
vn 0.4167 0.8571 0.3028
vn 0.4167 0.8571 -0.3028
vn -0.1592 0.8571 -0.4899
vn -0.5151 0.8571 0.0000
vn 0.4630 0.8543 -0.2363
vn 0.0000 0.5124 -0.8587
vn 0.0000 0.5124 0.8587
vn 0.4630 0.8543 0.2363
vn -0.2764 -0.4472 -0.8506
vn -0.2308 -0.6650 -0.7103
vn -0.4915 -0.5038 -0.7103
vn 0.7236 -0.4472 -0.5257
vn 0.6042 -0.6650 -0.4390
vn 0.5236 -0.5038 -0.6870
vn 0.7236 -0.4472 0.5257
vn 0.6042 -0.6650 0.4390
vn 0.8152 -0.5038 0.2857
vn -0.2764 -0.4472 0.8506
vn -0.2308 -0.6650 0.7103
vn -0.0198 -0.5038 0.8636
vn -0.8944 -0.4472 0.0000
vn -0.7468 -0.6650 0.0000
vn -0.8274 -0.5038 0.2480
vn -0.2608 -0.9654 0.0000
vn -0.0806 -0.9654 0.2480
vn -0.5257 -0.8506 0.0000
vn -0.3682 -0.8904 0.2675
vn -0.6317 -0.7275 0.2675
vn -0.1625 -0.8506 0.5000
vn -0.4496 -0.7275 0.5181
vn -0.6882 -0.5257 0.5000
vn -0.4915 -0.5038 0.7103
vn 0.2109 -0.9654 0.1533
vn 0.1406 -0.8904 0.4328
vn 0.0592 -0.7275 0.6835
vn 0.4253 -0.8506 0.3090
vn 0.3538 -0.7275 0.5877
vn 0.2629 -0.5257 0.8090
vn 0.5236 -0.5038 0.6870
vn 0.2109 -0.9654 -0.1533
vn 0.4551 -0.8904 0.0000
vn 0.6683 -0.7275 0.1549
vn 0.4253 -0.8506 -0.3090
vn 0.6683 -0.7275 -0.1549
vn 0.8506 -0.5257 0.0000
vn 0.8152 -0.5038 -0.2857
vn -0.0806 -0.9654 -0.2480
vn 0.1406 -0.8904 -0.4328
vn 0.3538 -0.7275 -0.5877
vn -0.1625 -0.8506 -0.5000
vn 0.0592 -0.7275 -0.6835
vn 0.2629 -0.5257 -0.8090
vn -0.0198 -0.5038 -0.8636
vn -0.3682 -0.8904 -0.2675
vn -0.4496 -0.7275 -0.5181
vn -0.6317 -0.7275 -0.2675
vn -0.6882 -0.5257 -0.5000
vn -0.8274 -0.5038 -0.2480
vn -0.9602 -0.2330 0.1537
vn -0.9442 -0.1071 0.3113
vn -0.8612 -0.2642 0.4341
vn -0.8032 -0.1199 0.5835
vn 0.0043 -0.1071 -0.9942
vn -0.1505 -0.2330 -0.9607
vn -0.3074 -0.1011 -0.9462
vn 0.3068 -0.1199 0.9442
vn 0.1467 -0.2642 0.9532
vn 0.4415 -0.2642 0.8574
vn -0.6790 -0.2642 0.6849
vn -0.5879 -0.1071 0.8018
vn -0.4429 -0.2330 0.8657
vn -0.3074 -0.1011 0.9462
vn -0.1505 -0.2330 0.9607
vn 0.0043 -0.1071 0.9942
vn 0.5809 -0.1071 0.8069
vn 0.6865 -0.2330 0.6887
vn 0.8049 -0.1011 0.5848
vn 0.8672 -0.2330 0.4401
vn 0.9214 -0.1231 0.3685
vn 0.9211 -0.3402 0.1892
vn 0.3068 -0.1199 -0.9442
vn 0.4415 -0.2642 -0.8574
vn 0.1467 -0.2642 -0.9532
vn 0.9256 -0.3171 -0.2064
vn 0.8049 -0.1011 -0.5848
vn 0.6865 -0.2330 -0.6887
vn 0.5809 -0.1071 -0.8069
vn 0.8672 -0.2330 -0.4401
vn -0.8032 -0.1199 -0.5835
vn -0.6790 -0.2642 -0.6849
vn -0.8612 -0.2642 -0.4341
vn -0.4429 -0.2330 -0.8657
vn -0.5879 -0.1071 -0.8018
vn 0.9214 -0.1231 -0.3685
vn -0.9442 -0.1071 -0.3113
vn -0.9602 -0.2330 -0.1537
vn -0.9949 -0.1011 0.0000
vn 0.9363 -0.1745 -0.3046
usemtl DomeMaterial
s 1
f 187/1/1 216/2/1 194/3/1 185/4/1
f 218/5/2 190/6/2 188/7/2 136/8/2
f 75/9/3 15/10/3 189/11/3 23/12/3 94/13/3 209/14/3 202/15/3 201/16/3 203/17/3 210/18/3 205/19/3 204/20/3 206/21/3 211/22/3 196/23/3 195/24/3 197/25/3 207/26/3 199/27/3 198/28/3 200/29/3 208/30/3 213/31/3 78/32/3
f 78/32/3 213/31/3 215/33/3 75/9/3
f 189/11/3 15/10/3 137/34/3
f 15/10/3 75/9/3 215/33/3 137/34/3
f 141/35/4 76/36/4 20/37/4 192/38/4 140/39/4
f 101/40/5 74/41/5 138/42/5 139/43/5
f 142/44/6 135/45/6 214/46/6 217/47/6
f 123/48/7 125/49/7 8/50/8 9/51/8
f 100/52/9 125/49/7 123/48/7 98/53/10
f 113/54/11 100/52/9 98/53/10 111/55/11
f 107/56/12 113/54/11 111/55/11 105/57/13
f 122/58/14 107/56/12 105/57/13 120/59/14
f 104/60/15 122/58/14 120/59/14 102/61/16
f 110/62/17 104/60/15 102/61/16 108/63/17
f 87/64/18 110/62/17 108/63/17 85/65/19
f 134/66/20 87/64/18 85/65/19 132/67/20
f 84/68/21 134/66/20 132/67/20 82/69/22
f 119/70/23 84/68/21 82/69/22 117/71/23
f 93/72/24 119/70/23 117/71/23 91/73/25
f 131/74/26 93/72/24 91/73/25 129/75/26
f 90/76/27 131/74/26 129/75/26 88/77/28
f 116/78/29 90/76/27 88/77/28 114/79/29
f 97/80/30 116/78/29 114/79/29 95/81/31
f 128/82/32 97/80/30 95/81/31 126/83/32
f 126/83/32 16/84/33 12/85/33 128/82/32
f 179/86/34 164/87/35 163/88/35 178/89/36
f 164/87/35 168/90/37 167/91/38 163/88/35
f 166/92/39 162/93/40 161/94/40 165/95/41
f 162/93/40 171/96/42 170/97/43 161/94/40
f 173/98/44 160/99/45 159/100/45 172/101/46
f 160/99/45 177/102/47 176/103/48 159/100/45
f 175/104/49 158/105/50 157/106/50 174/107/51
f 158/105/50 181/108/52 180/109/53 157/106/50
f 156/110/54 166/92/39 165/95/41 155/111/54
f 168/90/37 156/110/54 155/111/54 167/91/38
f 171/96/42 154/112/55 153/113/55 170/97/43
f 152/114/56 173/98/44 172/101/46 151/115/56
f 150/116/57 175/104/49 174/107/51 149/117/57
f 177/102/47 150/116/57 149/117/57 176/103/48
f 148/118/58 179/86/34 178/89/36 147/119/58
f 181/108/52 148/118/58 147/119/58 180/109/53
f 151/115/56 222/120/59 221/121/59 152/114/56
f 146/122/60 144/123/60 182/124/60 183/125/60
f 143/126/61 219/127/61 220/128/61 145/129/61
f 154/112/55 169/130/62 184/131/62 153/113/55
usemtl Glass
f 1/132/63 42/133/64 27/134/65
f 2/135/66 48/136/67 30/137/68
f 3/138/69 51/139/70 33/140/71
f 4/141/72 54/142/73 36/143/74
f 5/144/75 43/145/76 39/146/77
f 45/147/78 6/148/1 52/149/79
f 44/150/80 45/147/78 55/151/81
f 43/145/76 44/150/80 56/152/82
f 45/147/78 52/149/79 55/151/81
f 55/151/81 52/149/79 53/153/83
f 44/150/80 55/151/81 56/152/82
f 56/152/82 55/151/81 57/154/84
f 55/151/81 53/153/83 57/154/84
f 57/154/84 53/153/83 54/142/73
f 43/145/76 56/152/82 39/146/77
f 39/146/77 56/152/82 38/155/85
f 56/152/82 57/154/84 38/155/85
f 38/155/85 57/154/84 37/156/86
f 57/154/84 54/142/73 37/156/86
f 37/156/86 54/142/73 4/141/72
f 52/149/79 6/148/1 49/157/87
f 53/153/83 52/149/79 58/158/88
f 54/142/73 53/153/83 59/159/89
f 52/149/79 49/157/87 58/158/88
f 58/158/88 49/157/87 50/160/90
f 53/153/83 58/158/88 59/159/89
f 59/159/89 58/158/88 60/161/91
f 58/158/88 50/160/90 60/161/91
f 60/161/91 50/160/90 51/139/70
f 54/142/73 59/159/89 36/143/74
f 36/143/74 59/159/89 35/162/92
f 59/159/89 60/161/91 35/162/92
f 35/162/92 60/161/91 34/163/93
f 60/161/91 51/139/70 34/163/93
f 34/163/93 51/139/70 3/138/69
f 49/157/87 6/148/1 46/164/94
f 50/160/90 49/157/87 61/165/95
f 51/139/70 50/160/90 62/166/96
f 49/157/87 46/164/94 61/165/95
f 61/165/95 46/164/94 47/167/97
f 50/160/90 61/165/95 62/166/96
f 62/166/96 61/165/95 63/168/98
f 61/165/95 47/167/97 63/168/98
f 63/168/98 47/167/97 48/136/67
f 51/139/70 62/166/96 33/140/71
f 33/140/71 62/166/96 32/169/99
f 62/166/96 63/168/98 32/169/99
f 32/169/99 63/168/98 31/170/100
f 63/168/98 48/136/67 31/170/100
f 31/170/100 48/136/67 2/135/66
f 46/164/94 6/148/1 40/171/101
f 47/167/97 46/164/94 64/172/102
f 48/136/67 47/167/97 65/173/103
f 46/164/94 40/171/101 64/172/102
f 64/172/102 40/171/101 41/174/104
f 47/167/97 64/172/102 65/173/103
f 65/173/103 64/172/102 66/175/105
f 64/172/102 41/174/104 66/175/105
f 66/175/105 41/174/104 42/133/64
f 48/136/67 65/173/103 30/137/68
f 30/137/68 65/173/103 29/176/106
f 65/173/103 66/175/105 29/176/106
f 29/176/106 66/175/105 28/177/107
f 66/175/105 42/133/64 28/177/107
f 28/177/107 42/133/64 1/132/63
f 40/171/101 6/148/1 45/147/78
f 41/174/104 40/171/101 67/178/108
f 42/133/64 41/174/104 68/179/109
f 40/171/101 45/147/78 67/178/108
f 67/178/108 45/147/78 44/150/80
f 41/174/104 67/178/108 68/179/109
f 68/179/109 67/178/108 69/180/110
f 67/178/108 44/150/80 69/180/110
f 69/180/110 44/150/80 43/145/76
f 42/133/64 68/179/109 27/134/65
f 27/134/65 68/179/109 26/181/111
f 68/179/109 69/180/110 26/181/111
f 26/181/111 69/180/110 25/182/112
f 69/180/110 43/145/76 25/182/112
f 25/182/112 43/145/76 5/144/75
f 10/183/113 5/144/75 39/146/77
f 86/184/114 70/185/115 109/186/116
f 10/183/113 39/146/77 70/185/115
f 70/185/115 39/146/77 38/155/85
f 89/187/117 11/188/118 130/189/119
f 112/190/120 72/191/121 73/192/122
f 70/185/115 38/155/85 71/193/123
f 71/193/123 38/155/85 37/156/86
f 103/194/124 71/193/123 22/195/125
f 121/196/126 24/197/127 106/198/128
f 71/193/123 37/156/86 22/195/125
f 22/195/125 37/156/86 4/141/72
f 24/197/127 4/141/72 36/143/74
f 106/198/128 72/191/121 112/190/120
f 24/197/127 36/143/74 72/191/121
f 72/191/121 36/143/74 35/162/92
f 109/186/116 70/185/115 71/193/123
f 72/191/121 35/162/92 73/192/122
f 73/192/122 35/162/92 34/163/93
f 99/199/129 73/192/122 18/200/130
f 124/201/131 21/202/132 212/203/133
f 73/192/122 34/163/93 18/200/130
f 18/200/130 34/163/93 3/138/69
f 21/202/132 3/138/69 33/140/71
f 21/202/132 33/140/71 193/204/134
f 193/204/134 33/140/71 32/169/99
f 103/194/124 22/195/125 121/196/126
f 115/205/135 77/206/136 79/207/137
f 193/204/134 32/169/99 186/208/138
f 186/208/138 32/169/99 31/170/100
f 127/209/139 17/210/140 96/211/141
f 186/208/138 31/170/100 14/212/142
f 14/212/142 31/170/100 2/135/66
f 17/210/140 2/135/66 30/137/68
f 96/211/141 77/206/136 115/205/135
f 17/210/140 30/137/68 77/206/136
f 77/206/136 30/137/68 29/176/106
f 99/199/129 18/200/130 124/201/131
f 118/213/143 80/214/144 81/215/145
f 77/206/136 29/176/106 79/207/137
f 79/207/137 29/176/106 28/177/107
f 89/187/117 79/207/137 11/188/118
f 130/189/119 13/216/146 92/217/147
f 79/207/137 28/177/107 11/188/118
f 11/188/118 28/177/107 1/132/63
f 13/216/146 1/132/63 27/134/65
f 92/217/147 80/214/144 118/213/143
f 13/216/146 27/134/65 80/214/144
f 80/214/144 27/134/65 26/181/111
f 127/209/139 19/218/148 14/212/142
f 22/195/125 24/197/127 121/196/126
f 80/214/144 26/181/111 81/215/145
f 81/215/145 26/181/111 25/182/112
f 83/219/149 81/215/145 7/220/150
f 81/215/145 25/182/112 7/220/150
f 7/220/150 25/182/112 5/144/75
f 22/195/125 4/141/72 24/197/127
f 109/186/116 71/193/123 103/194/124
f 18/200/130 21/202/132 124/201/131
f 106/198/128 24/197/127 72/191/121
f 18/200/130 3/138/69 21/202/132
f 112/190/120 73/192/122 99/199/129
f 14/212/142 17/210/140 127/209/139
f 212/203/133 21/202/132 193/204/134
f 14/212/142 2/135/66 17/210/140
f 11/188/118 13/216/146 130/189/119
f 96/211/141 17/210/140 77/206/136
f 11/188/118 1/132/63 13/216/146
f 115/205/135 79/207/137 89/187/117
f 7/220/150 10/183/113 133/221/151
f 92/217/147 13/216/146 80/214/144
f 7/220/150 5/144/75 10/183/113
f 118/213/143 81/215/145 83/219/149
f 86/184/114 10/183/113 70/185/115
f 133/221/151 10/183/113 86/184/114
f 83/219/149 7/220/150 133/221/151
f 19/218/148 191/222/152 186/208/138 14/212/142
